<?xml version="1.0" encoding="utf-8"?>
<!-- Generator: Adobe Illustrator 24.1.2, SVG Export Plug-In . SVG Version: 6.00 Build 0)  -->
<svg version="1.1" id="Layer_1" xmlns="http://www.w3.org/2000/svg" xmlns:xlink="http://www.w3.org/1999/xlink" x="0px" y="0px"
	 viewBox="0 0 137.6 200" style="enable-background:new 0 0 137.6 200;" xml:space="preserve">
<style type="text/css">
	.st0{fill-rule:evenodd;clip-rule:evenodd;fill:#FFFFFF;}
</style>
<g>
	<path class="st0" d="M29,50.7c5.9,0,10.8,4.7,10.8,10.5c0,5.8-4.8,10.6-10.8,10.6c-5.9,0-10.8-4.7-10.8-10.6
		C18.2,55.4,23.1,50.7,29,50.7"/>
	<path class="st0" d="M42,33.7c3.5,0,6.4,2.8,6.4,6.2c0,3.4-2.9,6.2-6.4,6.2c-3.5,0-6.4-2.8-6.4-6.2C35.7,36.5,38.5,33.7,42,33.7"/>
	<path class="st0" d="M21.4,33.3c3.5,0,6.4,2.8,6.4,6.2s-2.8,6.2-6.4,6.2c-3.5,0-6.4-2.8-6.4-6.2C15,36.1,17.8,33.3,21.4,33.3"/>
	<path class="st0" d="M6.4,46.9c3.5,0,6.4,2.8,6.4,6.2c0,3.4-2.9,6.2-6.4,6.2c-3.5,0-6.4-2.8-6.4-6.2C0,49.7,2.8,46.9,6.4,46.9"/>
	<path class="st0" d="M64,19.6c6,0,10.8,4.7,10.8,10.5c0,5.8-4.8,10.5-10.8,10.5c-6,0-10.8-4.7-10.8-10.5C53.2,24.4,58,19.6,64,19.6
		"/>
	<path class="st0" d="M42.1,14.7c3.5,0,6.4,2.8,6.4,6.2c0,3.4-2.8,6.2-6.4,6.2c-3.5,0-6.4-2.8-6.4-6.2
		C35.8,17.5,38.6,14.7,42.1,14.7"/>
	<path class="st0" d="M57.3,1.2c3.5,0,6.4,2.8,6.4,6.2c0,3.5-2.9,6.2-6.4,6.2c-3.5,0-6.4-2.8-6.4-6.2C50.9,4,53.8,1.2,57.3,1.2"/>
	<path class="st0" d="M76.5,4.2c3.5,0,6.4,2.8,6.4,6.2c0,3.4-2.9,6.2-6.4,6.2c-3.5,0-6.4-2.8-6.4-6.2C70.1,7,73,4.2,76.5,4.2"/>
	<path class="st0" d="M90.1,19.7c3.5,0,6.4,2.8,6.4,6.2c0,3.4-2.9,6.2-6.4,6.2c-3.5,0-6.4-2.8-6.4-6.2
		C83.7,22.5,86.6,19.7,90.1,19.7"/>
	<path class="st0" d="M86.8,37.8c3.5,0,6.4,2.8,6.4,6.2c0,3.4-2.8,6.2-6.4,6.2s-6.4-2.8-6.4-6.2C80.4,40.6,83.3,37.8,86.8,37.8"/>
	<path class="st0" d="M99.3,52.4c3.5,0,6.4,2.8,6.4,6.2c0,3.4-2.8,6.2-6.4,6.2c-3.5,0-6.4-2.8-6.4-6.2C93,55.2,95.8,52.4,99.3,52.4"
		/>
	<path class="st0" d="M128.3,45.6c3.5,0,6.4,2.8,6.4,6.2c0,3.4-2.9,6.2-6.4,6.2c-3.5,0-6.4-2.8-6.4-6.2
		C121.9,48.4,124.8,45.6,128.3,45.6"/>
	<path class="st0" d="M130.7,27.3c3.5,0,6.4,2.8,6.4,6.2s-2.9,6.2-6.4,6.2c-3.5,0-6.4-2.8-6.4-6.2S127.1,27.3,130.7,27.3"/>
	<path class="st0" d="M118.9,12.4c3.5,0,6.4,2.8,6.4,6.2c0,3.5-2.9,6.2-6.4,6.2c-3.5,0-6.4-2.8-6.4-6.2
		C112.6,15.2,115.4,12.4,118.9,12.4"/>
	<path class="st0" d="M108.7,28.2c5.9,0,10.8,4.7,10.8,10.5c0,5.8-4.8,10.6-10.8,10.6c-5.9,0-10.8-4.7-10.8-10.6
		C97.9,32.9,102.7,28.2,108.7,28.2"/>
	<path class="st0" d="M137.6,200c-8.3,0.5-17.3,0.4-27-0.4c-9.7-0.7-14.6-6.9-14.6-18.5v-111h13.6c3.2,0,6.1,1.3,8.7,3.8
		c2.5,2.5,3.8,5.5,3.8,9.1v17h15.5v5.3c0,3.8-1.3,6.9-3.8,9.3c-2.5,2.4-5.5,3.6-9.1,3.6h-2.6v55.8c0,4.3,2.5,6.4,7.5,6.4h7.9V200z"
		/>
	<path class="st0" d="M88,200H74.8c-3.8,0-6.9-1.2-9.2-3.6c-2.4-2.4-3.6-5.5-3.6-9.3v-51.3c0-6-1.8-10.4-5.4-13.2
		c-3.6-2.8-7.7-4.2-12.2-4.2c-4.5,0-8.5,1.4-12,4.2c-3.5,2.8-5.3,7.2-5.3,13.2V200H0.4v-58.8c0-17.1,4.5-28.6,13.4-34.3
		c8.9-5.8,18.8-8.9,29.6-9.4c11,0,21.3,2.9,30.6,8.7c9.3,5.8,13.9,17.5,13.9,35.1L88,200L88,200z"/>
</g>
</svg>
